<svg width="510" height="510" viewBox="0 0 510 510" fill="none" xmlns="http://www.w3.org/2000/svg">
<rect width="510" height="510" fill="url(#paint0_linear_3_9)"/>
<path d="M228.393 66.0525C233.168 64.2402 281.748 64.9398 283.634 66.8484C284.39 67.6041 286.59 75.6378 288.543 84.701C293.673 108.595 292.821 107.071 303.038 110.682C307.962 112.413 315.607 115.462 320.035 117.453C327.736 120.913 328.039 121.243 326.939 124.854C326.306 126.942 325.756 134.056 325.729 140.675L325.688 152.704L316.625 161.74L307.576 170.776L297.716 165.804C282.878 158.348 266.829 154.942 250.781 155.848C225.381 157.277 205.592 166.148 187.467 184.22C174.485 197.183 166.935 209.804 161.173 228.205C158.478 236.829 157.955 241.402 157.996 256.356C158.038 276.749 159.825 284.385 168.406 300.987C178.074 319.677 193.077 334.439 211.587 343.462C227.718 351.317 237.827 353.665 255.594 353.692C277.377 353.72 294.47 348.034 314.039 334.274C330.335 322.821 346.206 298.405 350.496 278.15C354.856 257.606 352.435 234.37 343.689 212.769L340.209 204.174L358.734 185.8L373.861 185.442L388.988 185.098L390.995 189.15C392.096 191.361 394.998 198.103 397.446 204.118C400.072 210.531 402.932 215.42 404.39 215.956C405.752 216.45 415.021 218.579 425.004 220.666L443.129 224.483L444.147 230.114C445.522 237.846 445.151 275.993 443.638 281.075C442.455 285.098 441.987 285.29 424.647 288.929C414.87 290.989 405.546 292.995 403.936 293.38C401.791 293.902 400.58 295.824 399.411 300.63C398.531 304.228 395.314 312.454 392.261 318.922L386.719 330.677L397.817 348.969C403.935 359.019 408.926 368.163 408.928 369.292C408.928 372.642 370.961 409.966 368.497 409.034C367.342 408.581 358.733 403.252 349.382 397.182L332.385 386.156L326.306 389.136C322.964 390.77 314.355 394.712 307.163 397.884L294.099 403.665L291.156 415.845C289.534 422.533 287.361 431.72 286.343 436.252L284.473 444.491L255.346 444.862C228.504 445.205 226.178 445.041 225.504 442.803C223.758 437.035 217.776 408.869 217.776 406.466C217.775 404.749 216.262 403.308 213.403 402.319C211.01 401.481 202.305 397.499 194.068 393.462C185.845 389.425 178.378 386.13 177.469 386.129C176.575 386.142 172.738 388.476 168.956 391.346C159.647 398.391 145.428 407.976 142.786 408.993C141.287 409.569 134.604 403.843 120.756 390.138C109.823 379.317 100.884 369.594 100.884 368.551C100.884 367.493 102.026 364.994 103.414 362.989C107.361 357.289 122.887 331.542 122.887 330.677C122.886 330.249 120.7 325.402 118.019 319.91C115.337 314.417 112.023 306.232 110.634 301.715L108.104 293.503L88.3284 289.355C77.4514 287.062 67.7704 284.701 66.8342 284.083C64.3864 282.49 64.3863 227.738 66.8479 225.829C67.7984 225.087 76.2144 222.808 85.5647 220.762C108.558 215.723 108.475 215.763 110.29 208.746C111.129 205.477 114.472 197.458 117.703 190.922L123.575 179.029L119.298 172.383C110.126 158.128 102.259 143.71 102.259 141.155C102.26 137.309 137.699 101.866 141.549 101.866C143.186 101.866 145.991 103.02 147.806 104.421C149.608 105.821 157.088 110.82 164.446 115.516L177.813 124.058L191.4 117.838C198.867 114.418 207.489 110.848 210.556 109.887C216.785 107.937 217.501 106.439 220.54 88.8201C221.448 83.5335 222.74 77.7937 223.414 76.0496C224.102 74.3193 224.652 71.6821 224.652 70.1853C224.652 68.4964 226.069 66.9313 228.393 66.0525ZM347.815 112.317C367.246 92.5016 400.801 100.123 408.351 126.077C413.673 144.341 406.26 161.314 389.001 170.391C382.771 173.673 368.414 174.346 360.851 171.71L356.382 170.158L324.134 202.264C299.422 226.886 293.192 232.462 292.903 238.326C292.806 240.235 293.356 242.185 294.085 244.835C294.305 245.631 294.54 246.483 294.787 247.43C299.229 264.623 288.846 285.717 272.495 292.734C255.704 299.957 237.386 296.263 225.656 283.3C217.927 274.758 215.989 269.924 215.301 257.524C214.778 247.761 215.122 245.398 218.092 238.985C224.377 225.363 237.166 215.53 251.07 213.621C255.704 212.989 260.146 213.594 267.503 215.832L277.597 218.908L309.419 186.5L341.241 154.091L339.384 148.928C334.887 136.349 338.161 122.163 347.815 112.317ZM254.777 232.536C242.625 232.536 232.774 242.373 232.774 254.508C232.774 266.642 242.625 276.48 254.777 276.48C266.929 276.48 276.78 266.642 276.78 254.508C276.779 242.373 266.928 232.536 254.777 232.536ZM374.419 119.929C365.305 119.93 357.918 127.307 357.917 136.408C357.917 145.509 365.305 152.887 374.419 152.887C383.533 152.887 390.922 145.509 390.922 136.408C390.922 127.307 383.533 119.93 374.419 119.929Z" fill="white"/>
<defs>
<linearGradient id="paint0_linear_3_9" x1="0" y1="0" x2="510" y2="510" gradientUnits="userSpaceOnUse">
<stop stop-color="#1B436C"/>
<stop offset="1" stop-color="#458F9C"/>
</linearGradient>
</defs>
</svg>
