<?xml version="1.0" encoding="UTF-8"?>
<svg id="Layer_1" data-name="Layer 1" xmlns="http://www.w3.org/2000/svg" viewBox="0 0 1076 350">
  <defs>
    <style>
      .cls-1 {
        fill: #1b456e;
      }

      .cls-2 {
        fill: #498e9b;
      }
    </style>
  </defs>
  <g>
    <path class="cls-1" d="M156.72,42.19c3.16-1.2,35.29-.74,36.54.53.5.5,1.96,5.82,3.25,11.82,3.39,15.83,2.83,14.82,9.59,17.21,3.26,1.15,8.31,3.17,11.24,4.48,5.09,2.29,5.29,2.51,4.57,4.9-.42,1.38-.78,6.09-.8,10.48l-.03,7.97-5.99,5.99-5.99,5.99-6.52-3.29c-9.81-4.94-20.43-7.19-31.04-6.59-16.8.95-29.89,6.82-41.88,18.79-8.59,8.59-13.58,16.95-17.39,29.13-1.78,5.71-2.13,8.74-2.1,18.65.03,13.51,1.21,18.57,6.88,29.56,6.39,12.38,16.32,22.16,28.56,28.13,10.67,5.2,17.35,6.76,29.11,6.78,14.41.02,25.71-3.75,38.66-12.86,10.78-7.59,21.27-23.76,24.11-37.17,2.88-13.61,1.28-29-4.5-43.31l-2.3-5.69,12.25-12.17,10.01-.24,10.01-.23,1.33,2.68c.73,1.46,2.65,5.93,4.27,9.91,1.74,4.25,3.63,7.49,4.59,7.84.9.33,7.03,1.74,13.63,3.12l11.99,2.53.67,3.73c.91,5.12.66,30.39-.34,33.75-.78,2.67-1.09,2.79-12.56,5.2-6.47,1.36-12.63,2.69-13.7,2.95-1.42.35-2.22,1.62-2.99,4.8-.58,2.38-2.71,7.83-4.73,12.12l-3.67,7.79,7.34,12.12c4.05,6.66,7.35,12.72,7.35,13.46,0,2.22-25.11,26.94-26.74,26.32-.76-.3-6.46-3.83-12.64-7.85l-11.24-7.3-4.02,1.97c-2.21,1.08-7.9,3.69-12.66,5.79l-8.64,3.83-1.95,8.07c-1.07,4.43-2.51,10.51-3.18,13.52l-1.24,5.46-19.26.25c-17.76.23-19.29.12-19.74-1.36-1.16-3.82-5.11-22.47-5.11-24.07,0-1.14-1-2.09-2.89-2.75-1.58-.55-7.34-3.19-12.79-5.87-5.44-2.67-10.38-4.86-10.98-4.86-.55.01-2.82,1.37-5.16,3.11l-1.66,1.24c-6.11,4.54-14.48,10.16-16.12,10.79-.99.38-5.41-3.41-14.57-12.49-7.23-7.17-13.14-13.61-13.14-14.3,0-.7.75-2.36,1.67-3.68,2.61-3.77,12.88-20.83,12.88-21.4,0-.28-1.45-3.49-3.22-7.13-1.77-3.64-3.97-9.06-4.88-12.05l-1.67-5.44-13.08-2.75c-7.19-1.52-13.6-3.08-14.22-3.49-1.62-1.06-1.62-37.32,0-38.58.63-.49,6.19-2,12.38-3.36,15.21-3.34,15.15-3.31,16.35-7.96.55-2.17,2.76-7.48,4.9-11.81l3.88-7.88-2.83-4.4c-6.07-9.44-11.27-18.99-11.27-20.68,0-2.55,23.44-26.02,25.99-26.02,1.08,0,2.94.76,4.14,1.69,1.19.93,6.14,4.24,11.01,7.35l8.84,5.66,8.99-4.12c4.94-2.26,10.64-4.63,12.67-5.27,4.12-1.29,4.59-2.28,6.6-13.95.6-3.5,1.46-7.3,1.9-8.46.45-1.15.82-2.89.82-3.88,0-1.12.94-2.16,2.47-2.74ZM235.71,72.83c12.85-13.13,35.05-8.08,40.04,9.11,3.52,12.1-1.38,23.34-12.8,29.35-4.12,2.17-13.62,2.62-18.62.87l-2.96-1.03-21.33,21.27c-16.34,16.31-20.46,20-20.66,23.89-.06,1.26.3,2.56.78,4.31.15.53.3,1.09.46,1.72,2.94,11.39-3.93,25.36-14.74,30.01-11.11,4.78-23.22,2.34-30.98-6.25-5.11-5.66-6.39-8.86-6.85-17.07-.35-6.47-.12-8.03,1.85-12.28,4.16-9.02,12.62-15.54,21.81-16.8,3.07-.42,6-.02,10.87,1.46l6.68,2.04,21.05-21.47,21.05-21.47-1.23-3.42c-2.97-8.33-.81-17.73,5.58-24.25ZM174.18,152.46c-8.04,0-14.55,6.52-14.55,14.55s6.52,14.55,14.55,14.55,14.55-6.52,14.55-14.55-6.52-14.55-14.55-14.55ZM253.31,77.88c-6.03,0-10.91,4.89-10.91,10.91s4.89,10.91,10.91,10.91c6.03,0,10.91-4.89,10.91-10.91s-4.89-10.91-10.91-10.91Z"/>
    <path class="cls-1" d="M1006.84,215.17v-70.95h19.67v70.95h-19.67ZM1016.72,135.08c-2.93,0-5.44-.97-7.53-2.91-2.06-1.97-3.09-4.33-3.09-7.07s1.03-5.03,3.09-6.97c2.09-1.97,4.6-2.96,7.53-2.96s5.42.99,7.48,2.96c2.1,1.94,3.15,4.26,3.15,6.97s-1.05,5.1-3.15,7.07c-2.06,1.94-4.56,2.91-7.48,2.91Z"/>
    <path class="cls-1" d="M954.22,216.51c-4.53,0-8.56-.78-12.1-2.36-3.54-1.6-6.34-3.96-8.41-7.07-2.03-3.14-3.05-7.05-3.05-11.73,0-3.94.72-7.25,2.17-9.93,1.45-2.68,3.42-4.83,5.91-6.47,2.49-1.63,5.33-2.86,8.5-3.7,3.2-.83,6.56-1.42,10.07-1.76,4.13-.43,7.45-.83,9.97-1.2,2.53-.4,4.36-.99,5.5-1.76,1.14-.77,1.71-1.91,1.71-3.42v-.28c0-2.93-.93-5.19-2.77-6.79-1.82-1.6-4.4-2.4-7.76-2.4-3.55,0-6.36.78-8.46,2.35-2.09,1.54-3.48,3.48-4.16,5.82l-18.2-1.48c.92-4.31,2.74-8.04,5.45-11.18,2.71-3.17,6.21-5.6,10.48-7.3,4.31-1.72,9.3-2.59,14.97-2.59,3.94,0,7.71.46,11.32,1.39,3.63.92,6.85,2.36,9.65,4.3,2.84,1.94,5.07,4.43,6.7,7.48,1.63,3.02,2.45,6.64,2.45,10.85v47.85h-18.66v-9.84h-.55c-1.14,2.22-2.67,4.17-4.57,5.87-1.91,1.66-4.21,2.97-6.89,3.93-2.68.92-5.77,1.39-9.29,1.39ZM959.86,202.93c2.89,0,5.45-.57,7.67-1.71,2.21-1.17,3.96-2.74,5.22-4.71,1.26-1.97,1.89-4.2,1.89-6.7v-7.53c-.62.4-1.46.77-2.55,1.11-1.05.31-2.23.6-3.56.88-1.32.25-2.65.48-3.97.69-1.33.18-2.53.35-3.6.51-2.31.34-4.33.88-6.05,1.62-1.72.74-3.06,1.74-4.02,3-.96,1.23-1.43,2.77-1.43,4.62,0,2.68.97,4.73,2.91,6.14,1.97,1.39,4.47,2.08,7.48,2.08Z"/>
    <path class="cls-1" d="M909.35,216.37c-3.05,0-5.67-1.08-7.85-3.23-2.16-2.19-3.23-4.8-3.23-7.85s1.08-5.6,3.23-7.76c2.19-2.16,4.8-3.23,7.85-3.23s5.54,1.08,7.76,3.23c2.22,2.16,3.33,4.74,3.33,7.76,0,2.03-.52,3.9-1.57,5.59-1.02,1.66-2.36,3-4.02,4.02-1.66.99-3.5,1.48-5.5,1.48Z"/>
    <path class="cls-2" d="M813.46,215.17l-19.31-70.95h19.91l10.99,47.67h.65l11.46-47.67h19.54l11.64,47.39h.6l10.81-47.39h19.86l-19.26,70.95h-20.83l-12.19-44.62h-.88l-12.19,44.62h-20.79Z"/>
    <path class="cls-2" d="M756.13,216.56c-7.17,0-13.38-1.52-18.61-4.57-5.2-3.08-9.22-7.36-12.06-12.84-2.83-5.51-4.25-11.9-4.25-19.17s1.42-13.73,4.25-19.21c2.83-5.51,6.85-9.79,12.06-12.84,5.23-3.08,11.44-4.62,18.61-4.62s13.36,1.54,18.57,4.62c5.23,3.05,9.27,7.33,12.1,12.84,2.83,5.48,4.25,11.89,4.25,19.21s-1.42,13.66-4.25,19.17c-2.83,5.48-6.87,9.76-12.1,12.84-5.2,3.05-11.39,4.57-18.57,4.57ZM756.22,201.31c3.26,0,5.99-.92,8.18-2.77,2.19-1.88,3.83-4.43,4.94-7.67,1.14-3.23,1.71-6.91,1.71-11.04s-.57-7.81-1.71-11.04c-1.11-3.23-2.76-5.79-4.94-7.67-2.19-1.88-4.91-2.82-8.18-2.82s-6.07.94-8.31,2.82c-2.22,1.88-3.9,4.43-5.04,7.67-1.11,3.23-1.66,6.91-1.66,11.04s.55,7.81,1.66,11.04c1.14,3.23,2.82,5.79,5.04,7.67,2.25,1.85,5.02,2.77,8.31,2.77Z"/>
    <path class="cls-2" d="M665.44,174.15v41.02h-19.68v-70.95h18.75v12.52h.83c1.57-4.13,4.2-7.39,7.9-9.79,3.7-2.43,8.18-3.65,13.44-3.65,4.93,0,9.22,1.08,12.89,3.23,3.66,2.16,6.51,5.23,8.54,9.24,2.03,3.97,3.05,8.71,3.05,14.23v45.17h-19.68v-41.66c.03-4.34-1.08-7.73-3.33-10.16-2.25-2.46-5.34-3.7-9.28-3.7-2.65,0-4.99.57-7.02,1.71-2,1.14-3.57,2.8-4.71,4.99-1.11,2.16-1.68,4.76-1.71,7.81Z"/>
    <path class="cls-1" d="M634.36,164.45l-18.01,1.11c-.31-1.54-.97-2.93-1.99-4.16-1.02-1.26-2.36-2.26-4.02-3-1.63-.77-3.59-1.16-5.87-1.16-3.05,0-5.62.65-7.71,1.94-2.09,1.26-3.14,2.96-3.14,5.08,0,1.69.68,3.13,2.03,4.3,1.36,1.17,3.68,2.11,6.97,2.82l12.84,2.59c6.9,1.42,12.04,3.7,15.43,6.84,3.39,3.14,5.08,7.27,5.08,12.38,0,4.65-1.37,8.73-4.11,12.24-2.71,3.51-6.44,6.25-11.18,8.22-4.71,1.94-10.15,2.91-16.31,2.91-9.39,0-16.87-1.96-22.45-5.87-5.54-3.94-8.79-9.3-9.75-16.07l19.35-1.02c.58,2.86,2,5.05,4.25,6.56,2.25,1.48,5.13,2.22,8.64,2.22s6.22-.66,8.31-1.99c2.12-1.35,3.2-3.09,3.23-5.22-.03-1.79-.78-3.25-2.26-4.39-1.48-1.17-3.76-2.06-6.84-2.68l-12.29-2.45c-6.93-1.39-12.09-3.79-15.47-7.21-3.36-3.42-5.04-7.78-5.04-13.07,0-4.56,1.23-8.48,3.7-11.78,2.49-3.3,5.99-5.84,10.48-7.62,4.53-1.79,9.82-2.68,15.89-2.68,8.96,0,16.01,1.89,21.16,5.68,5.17,3.79,8.19,8.94,9.05,15.47Z"/>
    <path class="cls-1" d="M566,144.22v14.78h-42.72v-14.78h42.72ZM532.98,127.23h19.68v66.14c0,1.82.28,3.23.83,4.25.55.99,1.32,1.68,2.31,2.08,1.02.4,2.19.6,3.51.6.92,0,1.85-.08,2.77-.23.92-.18,1.63-.32,2.12-.42l3.09,14.64c-.99.31-2.37.66-4.16,1.06-1.79.43-3.96.69-6.51.79-4.74.18-8.9-.45-12.47-1.89-3.54-1.45-6.3-3.7-8.27-6.74-1.97-3.05-2.94-6.9-2.91-11.55v-68.73Z"/>
    <path class="cls-1" d="M474.09,215.17v-70.95h19.08v12.38h.74c1.29-4.4,3.46-7.73,6.51-9.98,3.05-2.28,6.56-3.42,10.53-3.42.99,0,2.05.06,3.19.18,1.14.12,2.14.29,3,.51v17.46c-.92-.28-2.2-.52-3.83-.74-1.63-.22-3.13-.32-4.48-.32-2.9,0-5.48.63-7.76,1.89-2.25,1.23-4.03,2.96-5.36,5.17-1.29,2.22-1.94,4.77-1.94,7.67v40.14h-19.68Z"/>
    <path class="cls-1" d="M421.47,216.51c-4.53,0-8.56-.78-12.1-2.36-3.54-1.6-6.34-3.96-8.41-7.07-2.03-3.14-3.05-7.05-3.05-11.73,0-3.94.72-7.25,2.17-9.93,1.45-2.68,3.42-4.83,5.91-6.47,2.49-1.63,5.33-2.86,8.5-3.7,3.2-.83,6.56-1.42,10.07-1.76,4.13-.43,7.45-.83,9.98-1.2,2.53-.4,4.36-.99,5.5-1.76,1.14-.77,1.71-1.91,1.71-3.42v-.28c0-2.93-.92-5.19-2.77-6.79-1.82-1.6-4.4-2.4-7.76-2.4-3.54,0-6.36.78-8.45,2.35-2.09,1.54-3.48,3.48-4.16,5.82l-18.2-1.48c.92-4.31,2.74-8.04,5.45-11.18,2.71-3.17,6.21-5.6,10.48-7.3,4.31-1.72,9.3-2.59,14.97-2.59,3.94,0,7.71.46,11.32,1.39,3.63.92,6.85,2.36,9.65,4.3,2.83,1.94,5.07,4.43,6.7,7.48,1.63,3.02,2.45,6.64,2.45,10.85v47.85h-18.66v-9.84h-.55c-1.14,2.22-2.66,4.17-4.57,5.87-1.91,1.66-4.2,2.97-6.88,3.93-2.68.92-5.77,1.39-9.28,1.39ZM427.1,202.93c2.9,0,5.45-.57,7.67-1.71,2.22-1.17,3.96-2.74,5.22-4.71,1.26-1.97,1.89-4.2,1.89-6.7v-7.53c-.62.4-1.46.77-2.54,1.11-1.05.31-2.23.6-3.56.88-1.32.25-2.65.48-3.97.69-1.32.18-2.53.35-3.6.51-2.31.34-4.33.88-6.05,1.62-1.72.74-3.06,1.74-4.02,3-.96,1.23-1.43,2.77-1.43,4.62,0,2.68.97,4.73,2.91,6.14,1.97,1.39,4.47,2.08,7.48,2.08Z"/>
    <path class="cls-1" d="M321.53,241.78v-97.55h19.4v11.92h.88c.86-1.91,2.11-3.85,3.74-5.82,1.66-2,3.82-3.66,6.47-4.99,2.68-1.36,6.01-2.03,9.98-2.03,5.17,0,9.95,1.35,14.32,4.06,4.37,2.68,7.87,6.73,10.49,12.15,2.62,5.39,3.93,12.15,3.93,20.28s-1.28,14.6-3.83,20.05c-2.53,5.42-5.97,9.53-10.35,12.33-4.34,2.77-9.21,4.16-14.6,4.16-3.82,0-7.07-.63-9.75-1.89-2.65-1.26-4.82-2.85-6.51-4.76-1.69-1.94-2.99-3.89-3.88-5.87h-.6v37.97h-19.68ZM340.79,179.7c0,4.22.58,7.9,1.75,11.04,1.17,3.14,2.86,5.59,5.08,7.34,2.22,1.72,4.91,2.59,8.08,2.59s5.91-.88,8.13-2.63c2.22-1.79,3.9-4.25,5.04-7.39,1.17-3.17,1.75-6.82,1.75-10.95s-.57-7.7-1.71-10.81c-1.14-3.11-2.82-5.54-5.03-7.3-2.22-1.76-4.94-2.63-8.18-2.63s-5.91.85-8.13,2.54c-2.19,1.69-3.86,4.1-5.03,7.21-1.17,3.11-1.75,6.77-1.75,10.99Z"/>
    <path class="cls-1" d="M174.18,137.91c16.08,0,29.11,13.03,29.11,29.11s-13.03,29.11-29.11,29.11-29.11-13.03-29.11-29.11,13.03-29.11,29.11-29.11ZM174.18,152.46c-8.04,0-14.55,6.52-14.55,14.55s6.52,14.55,14.55,14.55,14.55-6.52,14.55-14.55-6.52-14.55-14.55-14.55Z"/>
  </g>
  <g>
    <g>
      <path class="cls-1" d="M831.36,293.67c-.93.41-2.07.83-3.42,1.24-1.35.41-2.76.62-4.24.62-.97,0-1.88-.12-2.74-.36-.83-.24-1.57-.62-2.23-1.14-.62-.55-1.12-1.24-1.5-2.07-.38-.86-.57-1.89-.57-3.1v-15.55h-3.57v-5.32h3.57v-8.78h6.94v8.78h5.69v5.32h-5.69v13.23c0,.96.24,1.65.72,2.07.52.38,1.14.57,1.86.57s1.43-.12,2.12-.36c.69-.24,1.24-.45,1.66-.62l1.4,5.48ZM841.61,295.59c-1.31,0-2.54-.21-3.67-.62-1.14-.45-2.12-1.05-2.95-1.81-.83-.79-1.48-1.71-1.97-2.74-.45-1.03-.67-2.17-.67-3.41s.28-2.45.83-3.51c.59-1.1,1.38-2.03,2.38-2.79,1.03-.76,2.26-1.34,3.67-1.76,1.42-.45,2.97-.67,4.66-.67,1.21,0,2.38.1,3.52.31,1.17.21,2.21.5,3.11.88v-1.55c0-1.79-.52-3.17-1.55-4.13-1-.96-2.5-1.45-4.5-1.45-1.45,0-2.86.26-4.24.78-1.38.52-2.79,1.27-4.24,2.27l-2.12-4.39c3.48-2.31,7.25-3.46,11.28-3.46s6.92.96,9.06,2.89c2.17,1.89,3.26,4.65,3.26,8.27v8.42c0,.72.12,1.24.36,1.55.28.31.71.48,1.29.52v5.89c-1.17.24-2.19.36-3.05.36-1.31,0-2.33-.29-3.05-.88-.69-.59-1.12-1.36-1.29-2.33l-.16-1.5c-1.21,1.58-2.67,2.79-4.4,3.62-1.72.83-3.57,1.24-5.54,1.24ZM843.58,290.52c1.17,0,2.28-.21,3.31-.62,1.07-.41,1.9-.96,2.48-1.65.76-.59,1.14-1.24,1.14-1.96v-3.1c-.83-.31-1.73-.55-2.69-.72-.97-.21-1.9-.31-2.79-.31-1.79,0-3.26.41-4.4,1.24-1.14.79-1.71,1.81-1.71,3.05,0,1.17.45,2.15,1.35,2.95.9.76,2,1.14,3.31,1.14ZM863.12,257.35h6.94v29.04c0,1,.24,1.77.72,2.33.48.55,1.17.83,2.07.83.41,0,.86-.07,1.35-.21.52-.14,1-.31,1.45-.52l.93,5.27c-.93.45-2.02.79-3.26,1.03-1.24.24-2.36.36-3.36.36-2.17,0-3.86-.57-5.07-1.71-1.17-1.17-1.76-2.82-1.76-4.96v-31.47ZM897.36,295.07l-7.87-11.73-3.73,3.67v8.06h-6.94v-37.72h6.94v22.89l10.87-12.19h7.4l-10.09,11.47,10.82,15.55h-7.4ZM923.08,273.99c-2.11.03-3.99.45-5.64,1.24-1.66.76-2.85,1.91-3.57,3.46v16.38h-6.94v-27.08h6.37v5.79c.48-.93,1.05-1.76,1.71-2.48.65-.76,1.36-1.41,2.12-1.96.76-.55,1.52-.96,2.28-1.24.79-.31,1.55-.47,2.28-.47h.83c.21,0,.4.02.57.05v6.3ZM937.39,295.59c-2.17,0-4.14-.36-5.9-1.09-1.76-.76-3.26-1.77-4.5-3.05-1.24-1.27-2.21-2.76-2.9-4.44-.65-1.69-.98-3.46-.98-5.32s.33-3.74.98-5.43c.66-1.72,1.6-3.22,2.85-4.5,1.24-1.31,2.74-2.34,4.5-3.1,1.79-.76,3.8-1.14,6-1.14s4.17.38,5.9,1.14c1.76.76,3.24,1.77,4.45,3.05,1.24,1.27,2.17,2.76,2.79,4.44.65,1.69.98,3.44.98,5.27,0,.45-.02.88-.05,1.29,0,.41-.03.76-.1,1.03h-20.96c.1,1.07.36,2.02.78,2.84.41.83.95,1.53,1.6,2.12.65.59,1.4,1.03,2.22,1.34.83.31,1.69.47,2.59.47,1.38,0,2.67-.33,3.88-.98,1.24-.69,2.09-1.58,2.54-2.69l5.95,1.65c-1,2.07-2.61,3.77-4.81,5.12-2.17,1.31-4.78,1.96-7.81,1.96ZM944.43,279.26c-.17-2.03-.93-3.65-2.28-4.86-1.31-1.24-2.92-1.86-4.81-1.86-.93,0-1.81.17-2.64.52-.79.31-1.5.76-2.12,1.34-.62.59-1.14,1.29-1.55,2.12-.38.83-.6,1.74-.67,2.74h14.08ZM961.62,295.07l-9.99-27.08h7.14l6.88,21.44,6.94-21.44h6.52l-9.99,27.08h-7.5ZM979.39,295.07v-7.44h5.69v7.44h-5.69ZM997.8,295.59c-1.31,0-2.54-.21-3.67-.62-1.14-.45-2.12-1.05-2.95-1.81-.83-.79-1.48-1.71-1.97-2.74-.45-1.03-.67-2.17-.67-3.41s.28-2.45.83-3.51c.59-1.1,1.38-2.03,2.38-2.79,1.03-.76,2.26-1.34,3.67-1.76,1.42-.45,2.97-.67,4.66-.67,1.21,0,2.38.1,3.52.31,1.17.21,2.21.5,3.11.88v-1.55c0-1.79-.52-3.17-1.55-4.13-1-.96-2.5-1.45-4.5-1.45-1.45,0-2.86.26-4.24.78-1.38.52-2.79,1.27-4.24,2.27l-2.12-4.39c3.49-2.31,7.25-3.46,11.28-3.46s6.92.96,9.06,2.89c2.17,1.89,3.26,4.65,3.26,8.27v8.42c0,.72.12,1.24.36,1.55.28.31.71.48,1.29.52v5.89c-1.17.24-2.19.36-3.05.36-1.31,0-2.33-.29-3.05-.88-.69-.59-1.12-1.36-1.29-2.33l-.16-1.5c-1.21,1.58-2.67,2.79-4.4,3.62-1.73.83-3.57,1.24-5.54,1.24ZM999.77,290.52c1.17,0,2.28-.21,3.31-.62,1.07-.41,1.9-.96,2.48-1.65.76-.59,1.14-1.24,1.14-1.96v-3.1c-.83-.31-1.73-.55-2.69-.72-.97-.21-1.9-.31-2.79-.31-1.79,0-3.26.41-4.4,1.24-1.14.79-1.71,1.81-1.71,3.05,0,1.17.45,2.15,1.35,2.95.9.76,2,1.14,3.31,1.14ZM1019.36,295.07v-27.08h6.94v27.08h-6.94ZM1019.36,264.22v-6.87h6.94v6.87h-6.94Z"/>
      <path class="cls-1" d="M786.08,251.56c6.02,0,10.9,4.87,10.9,10.88v20.4s.68,9.52,2.72,12.24c2.02,2.69,4.05,2.72,4.09,2.72h-42.22c-6.02,0-10.9-4.87-10.9-10.88v-24.48c0-6.01,4.88-10.88,10.9-10.88h24.52ZM759.52,282.83c-1.13,0-2.04.91-2.04,2.04v4.08c0,1.13.91,2.04,2.04,2.04,1.13,0,2.04-.91,2.04-2.04v-4.08c0-1.13-.91-2.04-2.04-2.04ZM769.05,280.11c-1.13,0-2.04.91-2.04,2.04v6.8c0,1.13.91,2.04,2.04,2.04,1.13,0,2.04-.91,2.04-2.04v-6.8c0-1.13-.91-2.04-2.04-2.04ZM778.59,274.67c-1.13,0-2.04.91-2.04,2.04v12.24c0,1.13.91,2.04,2.04,2.04,1.13,0,2.04-.91,2.04-2.04v-12.24c0-1.13-.91-2.04-2.04-2.04ZM788.12,262.44c-1.13,0-2.04.91-2.04,2.04v24.48c0,1.13.91,2.04,2.04,2.04,1.13,0,2.04-.91,2.04-2.04v-24.48c0-1.13-.91-2.04-2.04-2.04Z"/>
    </g>
    <g>
      <path class="cls-1" d="M418.8,295.5c-2.42,0-4.55-.55-6.41-1.64-1.86-1.1-3.31-2.54-4.33-4.35v18.05h-7.9v-43.47h6.95v5.34c1.19-1.8,2.69-3.22,4.51-4.26,1.82-1.04,3.9-1.56,6.24-1.56,2.1,0,4.03.41,5.79,1.23,1.76.82,3.3,1.97,4.63,3.44,1.33,1.47,2.35,3.16,3.06,5.08s1.07,3.95,1.07,6.11c0,2.98-.58,5.68-1.75,8.1-1.17,2.43-2.77,4.36-4.81,5.78-2.04,1.43-4.39,2.14-7.04,2.14ZM416.12,288.73c1.19,0,2.29-.25,3.3-.76,1.01-.5,1.87-1.18,2.58-2.04.71-.85,1.27-1.85,1.66-3,.4-1.14.59-2.32.59-3.52s-.21-2.42-.62-3.52c-.42-1.11-1.02-2.07-1.81-2.88-.79-.82-1.71-1.46-2.76-1.92-1.05-.47-2.21-.7-3.47-.7-.71,0-1.46.13-2.23.38-.77.25-1.51.61-2.23,1.07-.71.46-1.33.99-1.84,1.59-.51.6-.93,1.28-1.25,2.05v7.22c.51,1.12,1.18,2.15,1.99,3.07.81.93,1.75,1.65,2.82,2.18,1.07.52,2.16.78,3.27.78Z"/>
      <path class="cls-1" d="M451.93,295.5c-2.53,0-4.8-.43-6.8-1.29-2-.86-3.71-2.04-5.14-3.52-1.43-1.49-2.5-3.18-3.24-5.08-.73-1.9-1.1-3.9-1.1-6.02s.37-4.25,1.1-6.17c.73-1.92,1.8-3.61,3.21-5.08,1.4-1.47,3.12-2.62,5.14-3.47s4.28-1.26,6.77-1.26,4.86.42,6.86,1.26c2,.84,3.71,2,5.14,3.47,1.42,1.47,2.51,3.16,3.27,5.08.75,1.92,1.13,3.97,1.13,6.17s-.38,4.12-1.13,6.02c-.75,1.9-1.84,3.59-3.27,5.08-1.43,1.49-3.14,2.66-5.14,3.52-2,.86-4.27,1.29-6.8,1.29ZM443.8,279.59c0,1.75.36,3.32,1.07,4.72.71,1.4,1.69,2.49,2.94,3.26,1.25.78,2.62,1.17,4.13,1.17s2.87-.4,4.1-1.19c1.23-.8,2.21-1.88,2.94-3.26.73-1.38,1.1-2.96,1.1-4.75s-.37-3.31-1.1-4.69c-.73-1.38-1.71-2.47-2.94-3.26-1.23-.8-2.61-1.19-4.16-1.19s-2.87.4-4.1,1.19c-1.23.8-2.2,1.88-2.91,3.26-.71,1.38-1.07,2.96-1.07,4.75Z"/>
      <path class="cls-1" d="M511.91,264.09h7.54l-13,30.82h-6.65l-5.23-13.23-5.11,13.23h-6.65l-13.06-30.82h7.54l9.26,23.29,3.62-10.06-5.4-13.23h6.59l3.21,9.47,3.27-9.47h6.59l-5.4,13.23,3.68,10.06,9.2-23.29Z"/>
      <path class="cls-1" d="M537.32,295.5c-2.49,0-4.75-.42-6.77-1.26-2.02-.84-3.74-2-5.17-3.46-1.43-1.47-2.51-3.14-3.27-5.02-.75-1.88-1.13-3.9-1.13-6.05,0-2.9.66-5.57,1.99-8.02,1.33-2.45,3.21-4.41,5.64-5.87,2.43-1.47,5.35-2.2,8.76-2.2s6.26.74,8.67,2.2c2.41,1.47,4.28,3.4,5.58,5.79,1.31,2.39,1.96,5,1.96,7.82,0,.51-.02.99-.06,1.44-.04.45-.08.83-.12,1.15h-23.99c.12,1.63.56,3.01,1.34,4.15.77,1.14,1.76,2.02,2.97,2.64,1.21.62,2.48.93,3.83.93,1.62,0,3.14-.39,4.54-1.16,1.4-.77,2.36-1.81,2.88-3.12l6.77,1.9c-.71,1.58-1.76,2.99-3.15,4.22-1.39,1.23-3.03,2.19-4.93,2.88-1.9.69-4.02,1.04-6.35,1.04ZM529.19,277.03h16.27c-.16-1.55-.6-2.89-1.34-4.03-.73-1.14-1.69-2.03-2.88-2.67-1.19-.64-2.51-.96-3.98-.96s-2.72.32-3.89.96c-1.17.64-2.12,1.53-2.85,2.67-.73,1.14-1.18,2.49-1.34,4.03Z"/>
      <path class="cls-1" d="M576.81,270.68c-2.46.04-4.63.5-6.53,1.4-1.9.89-3.29,2.21-4.16,3.95v18.88h-7.9v-30.82h7.3v6.35c1.11-2.14,2.52-3.82,4.25-5.05,1.72-1.23,3.53-1.9,5.43-2.02.39.04.71.05.95.03.24-.02.45.01.65.09v7.19Z"/>
      <path class="cls-1" d="M595.4,295.5c-2.49,0-4.75-.42-6.77-1.26-2.02-.84-3.74-2-5.17-3.46-1.43-1.47-2.52-3.14-3.27-5.02-.75-1.88-1.13-3.9-1.13-6.05,0-2.9.66-5.57,1.99-8.02,1.33-2.45,3.21-4.41,5.64-5.87,2.43-1.47,5.35-2.2,8.76-2.2s6.26.74,8.67,2.2c2.41,1.47,4.28,3.4,5.58,5.79,1.31,2.39,1.96,5,1.96,7.82,0,.51-.02.99-.06,1.44-.04.45-.08.83-.12,1.15h-23.99c.12,1.63.56,3.01,1.34,4.15.77,1.14,1.76,2.02,2.97,2.64,1.21.62,2.48.93,3.83.93,1.62,0,3.14-.39,4.54-1.16,1.4-.77,2.36-1.81,2.88-3.12l6.77,1.9c-.71,1.58-1.76,2.99-3.15,4.22-1.39,1.23-3.03,2.19-4.93,2.88-1.9.69-4.02,1.04-6.35,1.04ZM587.26,277.03h16.27c-.16-1.55-.6-2.89-1.34-4.03-.73-1.14-1.69-2.03-2.88-2.67-1.19-.64-2.51-.96-3.98-.96s-2.72.32-3.89.96c-1.17.64-2.12,1.53-2.85,2.67-.73,1.14-1.18,2.49-1.34,4.03Z"/>
      <path class="cls-1" d="M614.4,279.53c0-2.94.59-5.62,1.78-8.05,1.19-2.43,2.83-4.34,4.93-5.75,2.1-1.41,4.49-2.11,7.19-2.11,2.26,0,4.31.56,6.18,1.69,1.86,1.13,3.29,2.56,4.27,4.31v-18.05h8.02v34.44c0,.83.14,1.43.42,1.78.28.36.75.57,1.42.65v6.47c-1.42.28-2.55.39-3.38.36-1.43.04-2.6-.3-3.53-1.01-.93-.71-1.45-1.64-1.57-2.79l-.12-1.96c-1.15,1.94-2.7,3.42-4.66,4.45-1.96,1.03-4.01,1.54-6.15,1.54s-4.11-.4-5.91-1.2c-1.8-.8-3.37-1.94-4.69-3.41-1.33-1.47-2.36-3.17-3.09-5.11-.73-1.94-1.1-4.02-1.1-6.26ZM638.81,283.55v-7.22c-.4-1.13-1.03-2.14-1.9-3.03-.87-.89-1.84-1.6-2.91-2.13-1.07-.52-2.14-.79-3.21-.79-1.23,0-2.34.25-3.33.76-.99.5-1.85,1.18-2.58,2.04-.73.85-1.29,1.84-1.66,2.94-.38,1.11-.56,2.28-.56,3.52s.22,2.48.65,3.58c.44,1.11,1.03,2.08,1.78,2.91.75.83,1.66,1.48,2.73,1.92,1.07.45,2.22.67,3.44.67.79,0,1.56-.13,2.32-.38.75-.25,1.47-.61,2.17-1.08.69-.47,1.32-1.01,1.87-1.63.55-.62.95-1.32,1.19-2.1Z"/>
      <path class="cls-1" d="M686.07,295.5c-2.38,0-4.49-.53-6.35-1.6-1.86-1.07-3.33-2.53-4.4-4.39v5.4h-6.95v-43.35h7.9v18.05c1.15-1.86,2.62-3.33,4.42-4.39,1.8-1.07,3.91-1.6,6.32-1.6,2.02,0,3.86.42,5.52,1.26,1.66.84,3.1,2.01,4.31,3.49,1.21,1.49,2.15,3.2,2.82,5.14.67,1.94,1.01,3.98,1.01,6.14s-.38,4.3-1.13,6.2c-.75,1.9-1.79,3.58-3.12,5.05-1.33,1.47-2.86,2.6-4.6,3.41-1.74.8-3.66,1.2-5.76,1.2ZM683.82,288.73c1.27,0,2.44-.23,3.53-.7,1.09-.47,2.01-1.12,2.76-1.95.75-.83,1.34-1.8,1.75-2.88.42-1.09.62-2.27.62-3.55,0-1.59-.34-3.11-1.01-4.54-.67-1.44-1.62-2.58-2.85-3.44-1.23-.85-2.65-1.28-4.27-1.28-1.15,0-2.25.27-3.3.82-1.05.54-1.98,1.25-2.79,2.13-.81.87-1.48,1.87-1.99,3v7.28c.32.78.73,1.49,1.25,2.13.51.64,1.13,1.18,1.84,1.6.71.43,1.46.77,2.23,1.02s1.51.38,2.23.38Z"/>
      <path class="cls-1" d="M706.44,300.96c.71.16,1.38.29,1.99.39s1.14.17,1.57.21c.75,0,1.38-.19,1.87-.56.49-.37.98-1.04,1.46-1.99.47-.96.97-2.29,1.48-4.01l-12.29-30.91h8.25l8.37,22.83,7.36-22.83h7.6l-13.06,37.04c-.47,1.38-1.2,2.62-2.17,3.75-.97,1.12-2.17,2.01-3.59,2.66-1.43.65-3.05.97-4.87.97-.63,0-1.27-.05-1.9-.15-.63-.1-1.33-.29-2.08-.56v-6.83Z"/>
    </g>
  </g>
</svg>