<svg width="1076" height="277" viewBox="0 0 1076 277" fill="none" xmlns="http://www.w3.org/2000/svg">
<path d="M118.813 0.766389C122.284 -0.55358 157.613 -0.0435238 158.983 1.34647C159.533 1.89754 161.134 7.74717 162.554 14.3465C166.283 31.7459 165.664 30.6364 173.094 33.2664C176.674 34.5264 182.234 36.7461 185.454 38.1961C191.053 40.7158 191.273 40.9561 190.474 43.5857C190.014 45.1057 189.614 50.2863 189.594 55.1062L189.563 63.866L182.974 70.4461L176.393 77.0262L169.224 73.406C158.434 67.9761 146.764 65.4961 135.094 66.156C116.624 67.196 102.234 73.6562 89.0536 86.8162C79.6136 96.2562 74.1235 105.446 69.9335 118.846C67.9736 125.126 67.5939 128.457 67.6239 139.346C67.6539 154.196 68.9533 159.757 75.1932 171.846C82.2233 185.456 93.1337 196.206 106.594 202.776C118.323 208.496 125.674 210.206 138.594 210.226C154.434 210.246 166.864 206.106 181.094 196.086C192.944 187.746 204.483 169.965 207.603 155.216C210.773 140.256 209.013 123.336 202.653 107.606L200.124 101.346L213.594 87.9656L224.594 87.7058L235.594 87.4558L237.054 90.406C237.854 92.0162 239.963 96.9266 241.743 101.306C243.653 105.976 245.734 109.536 246.794 109.926C247.785 110.286 254.524 111.836 261.783 113.356L274.964 116.137L275.704 120.236C276.704 125.867 276.434 153.647 275.334 157.346C274.474 160.276 274.133 160.416 261.523 163.066C254.414 164.566 247.634 166.026 246.464 166.306C244.904 166.686 244.024 168.086 243.174 171.586C242.534 174.206 240.194 180.196 237.974 184.906L233.943 193.466L242.014 206.786C246.463 214.105 250.093 220.765 250.094 221.586C250.093 224.026 222.484 251.205 220.693 250.526C219.853 250.196 213.593 246.316 206.794 241.896L194.433 233.866L190.014 236.036C187.584 237.226 181.324 240.096 176.094 242.406L166.594 246.616L164.454 255.486C163.274 260.356 161.694 267.046 160.954 270.346L159.594 276.346L138.414 276.616C118.894 276.866 117.204 276.746 116.714 275.116C115.444 270.916 111.094 250.407 111.094 248.656C111.094 247.406 109.994 246.357 107.914 245.637C106.174 245.027 99.8434 242.126 93.8534 239.186C87.8737 236.246 82.4435 233.847 81.7831 233.846C81.173 233.857 78.6835 235.351 76.1093 237.26L74.285 238.628C67.5638 243.624 58.3635 249.802 56.5634 250.496C55.4732 250.916 50.6133 246.746 40.5438 236.766C32.594 228.887 26.0939 221.806 26.0936 221.046C26.0939 220.275 26.9236 218.456 27.9335 216.996C30.8035 212.846 42.0931 194.096 42.0936 193.466C42.0923 193.153 40.5028 189.624 38.5536 185.626C36.6036 181.626 34.1935 175.666 33.1835 172.376L31.3436 166.396L16.9638 163.376C9.05486 161.706 2.01556 159.986 1.33387 159.536C-0.44613 158.376 -0.446365 118.506 1.34364 117.116C2.03418 116.576 8.15435 114.915 14.954 113.426C31.6733 109.756 31.6135 109.785 32.9335 104.676C33.5436 102.295 35.9733 96.4558 38.3231 91.6961L42.5936 83.0359L39.4833 78.1961C32.8134 67.8162 27.0937 57.316 27.0936 55.4558C27.0947 52.655 52.864 26.8465 55.6639 26.8465C56.854 26.8467 58.8939 27.686 60.2138 28.7058C61.524 29.726 66.9636 33.3661 72.3134 36.7859L82.0331 43.0056L91.9139 38.4764C97.3439 35.9864 103.614 33.3863 105.844 32.6863C110.373 31.2663 110.893 30.1759 113.103 17.3465C113.763 13.4965 114.703 9.3157 115.193 8.04569C115.693 6.78576 116.094 4.86614 116.094 3.77616C116.094 2.54622 117.124 1.40641 118.813 0.766389ZM205.653 34.4558C219.783 20.0259 244.184 25.5764 249.674 44.4764C253.543 57.7762 248.153 70.1359 235.603 76.7459C231.073 79.1358 220.634 79.6258 215.134 77.7058L211.884 76.576L188.433 99.9558C170.464 117.885 165.934 121.946 165.724 126.216C165.654 127.606 166.054 129.026 166.584 130.956C166.744 131.536 166.914 132.156 167.094 132.846C170.323 145.366 162.773 160.726 150.884 165.836C138.674 171.096 125.353 168.406 116.823 158.966C111.203 152.746 109.794 149.226 109.294 140.196C108.914 133.086 109.163 131.366 111.323 126.696C115.893 116.776 125.194 109.616 135.304 108.226C138.674 107.766 141.904 108.206 147.254 109.836L154.594 112.076L177.733 88.4764L200.874 64.8758L199.523 61.116C196.253 51.956 198.633 41.6258 205.653 34.4558ZM138 122C129.163 122 122 129.163 122 138C122 146.836 129.163 154 138 154C146.836 154 154 146.836 154 138C154 129.163 146.836 122 138 122ZM225 39.9998C218.372 39.9998 213 45.3724 213 51.9998C213 58.6271 218.373 63.9998 225 63.9998C231.627 63.9997 237 58.627 237 51.9998C237 45.3724 231.627 39.9999 225 39.9998Z" fill="#FFFFFF"/>
<path d="M1053.43 190.941V112.941H1075.06V190.941H1053.43ZM1064.3 102.886C1061.08 102.886 1058.32 101.82 1056.02 99.6873C1053.75 97.5206 1052.62 94.9307 1052.62 91.9177C1052.62 88.9386 1053.75 86.3826 1056.02 84.2498C1058.32 82.0831 1061.08 80.9998 1064.3 80.9998C1067.51 80.9998 1070.26 82.0831 1072.52 84.2498C1074.83 86.3826 1075.98 88.9386 1075.98 91.9177C1075.98 94.9307 1074.83 97.5206 1072.52 99.6873C1070.26 101.82 1067.51 102.886 1064.3 102.886Z" fill="#FFFFFF"/>
<path d="M995.582 192.414C990.605 192.414 986.171 191.551 982.277 189.824C978.384 188.064 975.303 185.474 973.035 182.054C970.801 178.601 969.684 174.302 969.684 169.156C969.684 164.823 970.479 161.183 972.07 158.238C973.661 155.293 975.828 152.923 978.57 151.129C981.313 149.334 984.427 147.98 987.914 147.066C991.435 146.152 995.125 145.509 998.984 145.136C1003.52 144.663 1007.18 144.222 1009.95 143.816C1012.73 143.376 1014.74 142.733 1016 141.886C1017.25 141.04 1017.88 139.788 1017.88 138.129V137.824C1017.88 134.608 1016.86 132.12 1014.83 130.359C1012.83 128.599 1009.99 127.719 1006.3 127.719C1002.4 127.719 999.306 128.582 997.004 130.308C994.702 132.001 993.178 134.134 992.434 136.707L972.426 135.082C973.441 130.342 975.439 126.246 978.418 122.793C981.397 119.306 985.24 116.631 989.945 114.769C994.685 112.873 1000.17 111.926 1006.4 111.926C1010.73 111.926 1014.88 112.433 1018.84 113.449C1022.83 114.465 1026.37 116.039 1029.45 118.172C1032.57 120.304 1035.02 123.047 1036.82 126.398C1038.61 129.716 1039.51 133.694 1039.51 138.332V190.941H1018.99V180.125H1018.38C1017.13 182.562 1015.45 184.712 1013.36 186.574C1011.26 188.402 1008.73 189.841 1005.79 190.89C1002.84 191.906 999.441 192.414 995.582 192.414ZM1001.78 177.484C1004.96 177.484 1007.77 176.858 1010.21 175.605C1012.64 174.319 1014.56 172.592 1015.95 170.426C1017.33 168.259 1018.03 165.804 1018.03 163.062V154.785C1017.35 155.225 1016.42 155.631 1015.23 156.004C1014.08 156.342 1012.78 156.664 1011.32 156.969C1009.87 157.239 1008.41 157.493 1006.96 157.73C1005.5 157.933 1004.18 158.12 1003 158.289C1000.46 158.661 998.24 159.254 996.344 160.066C994.448 160.879 992.975 161.979 991.926 163.367C990.876 164.721 990.352 166.414 990.352 168.445C990.352 171.39 991.418 173.642 993.551 175.199C995.717 176.722 998.46 177.484 1001.78 177.484Z" fill="#FFFFFF"/>
<path d="M946.252 192.261C942.9 192.261 940.022 191.077 937.619 188.707C935.249 186.303 934.064 183.426 934.064 180.074C934.064 176.756 935.249 173.913 937.619 171.543C940.022 169.173 942.9 167.988 946.252 167.988C949.502 167.988 952.345 169.173 954.783 171.543C957.22 173.913 958.439 176.756 958.439 180.074C958.439 182.308 957.864 184.357 956.713 186.219C955.595 188.047 954.123 189.519 952.295 190.636C950.466 191.72 948.452 192.261 946.252 192.261Z" fill="#FFFFFF"/>
<path d="M840.833 190.941L819.607 112.941H841.493L853.579 165.347H854.29L866.884 112.941H888.365L901.161 165.043H901.822L913.704 112.941H935.54L914.365 190.941H891.462L878.056 141.886H877.091L863.685 190.941H840.833Z" fill="#FFFFFF"/>
<path d="M777.805 192.465C769.917 192.465 763.095 190.789 757.34 187.437C751.618 184.052 747.2 179.346 744.086 173.32C740.971 167.26 739.414 160.235 739.414 152.246C739.414 144.189 740.971 137.147 744.086 131.121C747.2 125.061 751.618 120.355 757.34 117.004C763.095 113.618 769.917 111.926 777.805 111.926C785.693 111.926 792.497 113.618 798.219 117.004C803.974 120.355 808.409 125.061 811.523 131.121C814.638 137.147 816.195 144.189 816.195 152.246C816.195 160.235 814.638 167.26 811.523 173.32C808.409 179.346 803.974 184.052 798.219 187.437C792.497 190.789 785.693 192.465 777.805 192.465ZM777.906 175.707C781.495 175.707 784.491 174.691 786.894 172.66C789.298 170.595 791.109 167.785 792.328 164.23C793.581 160.676 794.207 156.63 794.207 152.094C794.207 147.557 793.581 143.511 792.328 139.957C791.109 136.402 789.298 133.592 786.894 131.527C784.491 129.462 781.495 128.429 777.906 128.429C774.284 128.429 771.237 129.462 768.766 131.527C766.328 133.592 764.483 136.402 763.23 139.957C762.012 143.511 761.402 147.557 761.402 152.094C761.402 156.63 762.012 160.676 763.23 164.23C764.483 167.785 766.328 170.595 768.766 172.66C771.237 174.691 774.284 175.707 777.906 175.707Z" fill="#FFFFFF"/>
<path d="M678.099 145.847V190.941H656.466V112.941H677.084V126.703H677.998C679.724 122.166 682.619 118.578 686.681 115.937C690.744 113.263 695.669 111.926 701.459 111.926C706.875 111.926 711.598 113.11 715.627 115.48C719.655 117.85 722.787 121.235 725.021 125.636C727.255 130.004 728.373 135.217 728.373 141.277V190.941H706.74V145.136C706.774 140.363 705.555 136.639 703.084 133.965C700.612 131.256 697.21 129.902 692.877 129.902C689.965 129.902 687.392 130.528 685.158 131.781C682.957 133.034 681.231 134.862 679.978 137.265C678.759 139.635 678.133 142.496 678.099 145.847Z" fill="#FFFFFF"/>
<path d="M643.927 135.183L624.122 136.402C623.784 134.709 623.056 133.186 621.939 131.832C620.821 130.444 619.349 129.344 617.521 128.531C615.726 127.685 613.577 127.261 611.071 127.261C607.72 127.261 604.893 127.972 602.591 129.394C600.289 130.782 599.138 132.644 599.138 134.98C599.138 136.842 599.883 138.416 601.372 139.703C602.862 140.989 605.418 142.022 609.04 142.801L623.157 145.644C630.741 147.202 636.394 149.707 640.118 153.16C643.842 156.613 645.704 161.149 645.704 166.769C645.704 171.881 644.198 176.367 641.185 180.226C638.206 184.086 634.109 187.099 628.896 189.265C623.716 191.398 617.741 192.465 610.97 192.465C600.644 192.465 592.418 190.315 586.29 186.015C580.196 181.682 576.625 175.791 575.575 168.344L596.853 167.226C597.496 170.375 599.053 172.778 601.525 174.437C603.996 176.062 607.161 176.875 611.021 176.875C614.812 176.875 617.859 176.147 620.161 174.691C622.497 173.202 623.682 171.289 623.716 168.953C623.682 166.989 622.853 165.381 621.228 164.129C619.603 162.842 617.098 161.86 613.712 161.183L600.204 158.492C592.587 156.969 586.917 154.328 583.193 150.57C579.502 146.812 577.657 142.022 577.657 136.199C577.657 131.189 579.012 126.872 581.72 123.25C584.462 119.627 588.305 116.834 593.247 114.871C598.224 112.907 604.047 111.926 610.716 111.926C620.568 111.926 628.32 114.008 633.974 118.172C639.661 122.336 642.979 128.006 643.927 135.183Z" fill="#FFFFFF"/>
<path d="M568.774 112.941V129.191H521.802V112.941H568.774ZM532.466 94.2537H554.098V166.972C554.098 168.97 554.403 170.527 555.013 171.644C555.622 172.728 556.468 173.489 557.552 173.929C558.669 174.37 559.955 174.59 561.411 174.59C562.427 174.59 563.442 174.505 564.458 174.336C565.473 174.133 566.252 173.98 566.794 173.879L570.196 189.976C569.113 190.315 567.589 190.704 565.626 191.144C563.662 191.618 561.276 191.906 558.466 192.008C553.252 192.211 548.682 191.517 544.755 189.926C540.861 188.334 537.832 185.863 535.665 182.511C533.498 179.16 532.432 174.928 532.466 169.816V94.2537Z" fill="#FFFFFF"/>
<path d="M467.723 190.941V112.941H488.696V126.551H489.508C490.93 121.709 493.317 118.053 496.668 115.582C500.02 113.077 503.879 111.824 508.247 111.824C509.33 111.824 510.498 111.892 511.75 112.027C513.003 112.163 514.103 112.349 515.051 112.586V131.781C514.036 131.476 512.631 131.205 510.836 130.969C509.042 130.732 507.4 130.613 505.911 130.613C502.728 130.613 499.885 131.307 497.379 132.695C494.908 134.049 492.944 135.945 491.489 138.383C490.067 140.82 489.356 143.63 489.356 146.812V190.941H467.723Z" fill="#FFFFFF"/>
<path d="M409.874 192.414C404.898 192.414 400.463 191.551 396.569 189.824C392.676 188.064 389.595 185.474 387.327 182.054C385.093 178.601 383.976 174.302 383.976 169.156C383.976 164.823 384.771 161.183 386.362 158.238C387.954 155.293 390.12 152.923 392.862 151.129C395.605 149.334 398.719 147.98 402.206 147.066C405.727 146.152 409.417 145.509 413.276 145.136C417.813 144.663 421.469 144.222 424.245 143.816C427.021 143.376 429.036 142.733 430.288 141.886C431.541 141.04 432.167 139.788 432.167 138.129V137.824C432.167 134.608 431.151 132.12 429.12 130.359C427.123 128.599 424.279 127.719 420.589 127.719C416.696 127.719 413.598 128.582 411.296 130.308C408.994 132.001 407.47 134.134 406.726 136.707L386.718 135.082C387.734 130.342 389.731 126.246 392.71 122.793C395.689 119.306 399.532 116.631 404.237 114.769C408.977 112.873 414.461 111.926 420.691 111.926C425.024 111.926 429.171 112.433 433.132 113.449C437.127 114.465 440.665 116.039 443.745 118.172C446.86 120.304 449.314 123.047 451.109 126.398C452.903 129.716 453.8 133.694 453.8 138.332V190.941H433.284V180.125H432.675C431.422 182.562 429.747 184.712 427.648 186.574C425.549 188.402 423.026 189.841 420.081 190.89C417.136 191.906 413.734 192.414 409.874 192.414ZM416.069 177.484C419.252 177.484 422.062 176.858 424.499 175.605C426.937 174.319 428.849 172.592 430.237 170.426C431.625 168.259 432.319 165.804 432.319 163.062V154.785C431.642 155.225 430.711 155.631 429.526 156.004C428.375 156.342 427.072 156.664 425.616 156.969C424.161 157.239 422.705 157.493 421.249 157.73C419.793 157.933 418.473 158.12 417.288 158.289C414.749 158.661 412.532 159.254 410.636 160.066C408.74 160.879 407.267 161.979 406.218 163.367C405.168 164.721 404.644 166.414 404.644 168.445C404.644 171.39 405.71 173.642 407.843 175.199C410.01 176.722 412.752 177.484 416.069 177.484Z" fill="#FFFFFF"/>
<path d="M300 220.191V112.941H321.328V126.043H322.293C323.241 123.944 324.612 121.811 326.406 119.644C328.234 117.444 330.604 115.616 333.515 114.16C336.461 112.67 340.117 111.926 344.484 111.926C350.172 111.926 355.419 113.415 360.226 116.394C365.034 119.34 368.876 123.791 371.754 129.75C374.631 135.674 376.07 143.105 376.07 152.043C376.07 160.743 374.665 168.09 371.855 174.082C369.079 180.04 365.288 184.56 360.48 187.64C355.707 190.687 350.358 192.211 344.433 192.211C340.235 192.211 336.664 191.517 333.719 190.129C330.807 188.741 328.42 186.997 326.558 184.898C324.696 182.765 323.274 180.616 322.293 178.449H321.633V220.191H300ZM321.176 151.941C321.176 156.579 321.819 160.625 323.105 164.078C324.392 167.531 326.254 170.222 328.691 172.152C331.129 174.048 334.091 174.996 337.578 174.996C341.099 174.996 344.078 174.031 346.515 172.101C348.953 170.138 350.798 167.429 352.051 163.976C353.337 160.489 353.98 156.478 353.98 151.941C353.98 147.439 353.354 143.478 352.101 140.058C350.849 136.639 349.004 133.965 346.566 132.035C344.129 130.105 341.133 129.14 337.578 129.14C334.057 129.14 331.078 130.071 328.64 131.933C326.237 133.795 324.392 136.436 323.105 139.855C321.819 143.274 321.176 147.303 321.176 151.941Z" fill="#FFFFFF"/>
<path d="M138 106C155.673 106 170 120.327 170 138C170 155.673 155.673 170 138 170C120.327 170 106 155.673 106 138C106 120.327 120.327 106 138 106ZM138 122C129.163 122 122 129.163 122 138C122 146.836 129.163 154 138 154C146.836 154 154 146.836 154 138C154 129.163 146.836 122 138 122Z" fill="#FFFFFF"/>
</svg>
